<svg xmlns="http://www.w3.org/2000/svg" version="1.1" x="0px" y="0px" viewBox="0 0 100 125" style="enable-background:new 0 0 100 100;" xml:space="preserve">
    <g>
        <path fill="#FFFFFF7F" d="M49.9790115,42.0180473c-1.5737305,0-2.8544922,1.2871094-2.8544922,2.8686523   c0,1.5820313,1.2807617,2.8691406,2.8544922,2.8691406s2.8544922-1.2871094,2.8544922-2.8691406   C52.8335037,43.3051567,51.552742,42.0180473,49.9790115,42.0180473z M49.9790115,45.7558403   c-0.4711914,0-0.8544922-0.3896484-0.8544922-0.8691406c0-0.4790039,0.3833008-0.8686523,0.8544922-0.8686523   s0.8544922,0.3896484,0.8544922,0.8686523C50.8335037,45.3661919,50.4502029,45.7558403,49.9790115,45.7558403z"/>
        <path fill="#FFFFFF7F" d="M45.9545975,26.9296665l1.1713867,11.7827168c0.0297852,1.5561523,1.2988281,2.8125,2.8544922,2.8125   c1.5742188,0,2.8549805-1.2866211,2.8500977-2.7709961l1.1713867-11.8242207   c0.0009766-0.0078125,0.0014648-0.015625,0.0019531-0.0234375l0.0629883-0.6044922   c0.003418-0.0341797,0.0053711-0.0688477,0.0053711-0.1035156c0-0.512207-0.0932617-1.0107422-0.2734375-1.4711914   c-0.4487305-1.1875-1.440918-2.1118164-2.6396484-2.46875c-0.375-0.1176758-0.7714844-0.1772461-1.1787109-0.1772461   c-2.2563477,0-4.0917969,1.847168-4.0869141,4.2138672l0.0561523,0.5317383   C45.9497147,26.8598423,45.9511795,26.8969517,45.9545975,26.9296665z M49.9804764,24.0810337   c0.2041016,0,0.3989258,0.0288086,0.5942383,0.0898438c0.6176758,0.184082,1.1240234,0.65625,1.3574219,1.2739258   c0.0874023,0.2236328,0.1342773,0.4614258,0.1396484,0.706543l-1.2363281,12.505373   c0,0.4785156-0.3833008,0.8681641-0.8549805,0.8681641s-0.8549805-0.3896484-0.8549805-0.8681641   c0-0.0336914-0.0014648-0.0673828-0.0048828-0.1005859l-1.1708984-11.7250996c0-0.0322266-0.0014648-0.0688477-0.0048828-0.1010742   l-0.0561523-0.5317383C47.8886795,25.0307407,48.8271561,24.0810337,49.9804764,24.0810337z"/>
        <path fill="#FFFFFF7F" d="M36.4941483,33.6733208l0.0043945,1.2353516c0,9.7426758,6.0429688,17.6689453,13.4711914,17.6689453   c7.4277344,0,13.4707031-7.9262695,13.4707031-17.6689453c0-0.59375,0.0078125-1.1801758,0.0151367-1.7578125   c0.0463867-3.5546894,0.090332-6.911623-1.6860352-9.665041c-2.6176758-4.0571289-8.0332031-6.2460938-11.7998047-6.2460938   c-3.6147461,0-8.8574219,2.0087891-11.4545898,5.7314453C36.4536209,25.9262486,36.4731522,29.6894321,36.4941483,33.6733208z    M40.1557693,24.1157017c2.1289063-3.0522461,6.6616211-4.8759766,9.8139648-4.8759766   c3.2836914,0,7.9663086,1.9936523,10.1191406,5.3300781c1.4492188,2.246582,1.4111328,5.1699219,1.3671875,8.5546894   c-0.0078125,0.5864258-0.015625,1.1816406-0.015625,1.7841797c0,8.6396484-5.1455078,15.6689453-11.4707031,15.6689453   s-11.4711914-7.0292969-11.4711914-15.6689453l-0.0043945-1.2460938   C38.4741287,29.8461704,38.4570389,26.550272,40.1557693,24.1157017z"/>
        <path fill="#FFFFFF7F" d="M40.2519608,17.8525181c0.0947266-0.0507813,9.519043-4.9833975,19.4853516,0.0131836   c0.144043,0.0722656,0.296875,0.105957,0.4472656,0.105957c0.3666992,0,0.7197266-0.2021484,0.8950195-0.5517578   c0.2475586-0.4936523,0.0478516-1.0947266-0.4458008-1.3422852c-10.9223633-5.4731436-20.9106445-0.2124014-21.3305664,0.0141602   c-0.4853516,0.262207-0.6665039,0.8671875-0.4047852,1.3535156C39.158699,17.9306431,39.7646561,18.1137486,40.2519608,17.8525181z   "/>
        <path fill="#FFFFFF7F" d="M35.3266678,15.3901167c0.1420898-0.0756836,14.3198242-7.5141602,29.3364258,0.0136719   c0.144043,0.0722656,0.296875,0.105957,0.4472656,0.105957c0.3666992,0,0.7197266-0.2021484,0.8950195-0.5517578   c0.2475586-0.4936523,0.0478516-1.0947266-0.4458008-1.3422852c-15.9711914-8.0048828-30.5678711-0.3178711-31.1821289,0.0141602   c-0.4853516,0.262207-0.6665039,0.8676758-0.4047852,1.3540039C34.2348709,15.4692183,34.8418045,15.652812,35.3266678,15.3901167z   "/>
        <path fill="#FFFFFF7F" d="M87.8501053,34.8251762c-0.5844727-4.9697285-3.5302734-6.9990253-6.6264648-8.4521503   c-0.871582-0.4091797-1.8642578-0.6791992-2.8242188-0.9404297c-0.7612305-0.2075195-1.480957-0.4033203-2.0546875-0.6455078   l-0.7929688-0.3417969c-1.0327148-0.4484253-2.0142822-0.8670044-3.065918-1.1316528   c-0.1266479-0.0878906-0.2678223-0.1563721-0.4311523-0.1779175c-0.5262451-0.0690918-1.0212402-0.0823364-1.5004883-0.069397   c-1.0527344-0.0095825-2.0021362,0.2108765-2.812439,0.65802c-0.0321045,0.0167236-0.0594482,0.0392456-0.0911255,0.0566406   c-0.2088013,0.1212769-0.4160767,0.2443848-0.6050415,0.3952026c-0.8032227,0.6069336-1.40979,1.4434204-1.7653198,2.5078735   c-0.09198,0.2756958-0.1488647,0.5467529-0.2006836,0.8169556c-0.0129395,0.0625-0.0355835,0.1257324-0.0462036,0.1880493   c-0.0094604,0.0596924-0.0064697,0.1173096-0.0139771,0.1766357c-0.126709,0.9317627-0.0097656,1.8382568,0.3643799,2.6880493   c0.0915527,0.2103882,0.2157593,0.4122925,0.3369141,0.6148682c0.0485229,0.0806274,0.0818481,0.1651001,0.1350708,0.2445068   c0.5154419,0.7733784,1.2669678,1.4778461,2.2160645,2.1069355c0.1022339,0.1305542,0.225647,0.2456055,0.3895874,0.3139038   c0.194519,0.0809937,0.3961792,0.1678467,0.5962524,0.2533569c0.4750366,0.2351685,0.9628906,0.4511108,1.4491577,0.6499634   c0.1179199,0.0481567,0.2263184,0.0949707,0.3408203,0.142334c0.4175415,0.1912842,0.8237305,0.3805542,1.1879883,0.557373   c0.0974121,0.0472412,0.1947632,0.0859375,0.2923584,0.1307373c0.6591797,0.3258667,1.3289185,0.5681763,1.9568481,0.7749023   c0.4020996,0.1382446,0.7912598,0.2665405,1.1445923,0.3799438c0.0720215,0.0252686,0.1141968,0.0470581,0.1690674,0.0702515   c0.112854,0.0478516,0.1994019,0.0935059,0.2559204,0.1366577c0.0845947,0.0703125,0.1314087,0.1454468,0.1551514,0.2280273   c0.0047607,0.0222168,0.0112915,0.0430298,0.0153198,0.0670776c0.0087891,0.0537109,0.0170898,0.1000977,0.0219727,0.1411133   c-0.0537109,0.0581055-0.1235352,0.121582-0.2080078,0.2041016l-0.0635376,0.0623779   c-0.0023193,0.0022583-0.0043945,0.0042114-0.0067749,0.0064697c-1.1390381,1.0871582-2.3944092,2.3578491-3.6620483,3.6588135   c-1.2885132,1.3049927-2.5545654,2.6077271-3.7845459,3.8932495c-0.3065796,0.3121948-0.6066284,0.616394-0.8908081,0.9005737   c-2.5380859,2.5405273-9.1904297,8.3671875-10.7822266,9.3535156c-4.4863281,2.7797852-8.5683594,2.7607422-13.2368164-0.0634766   c-1.6137695-0.9765625-8.4438477-6.9580078-10.7475586-9.4125977l-0.8823223-0.9418945   c-0.1291504-0.1380005-0.2658081-0.2838135-0.3983765-0.4254761c-1.0274658-1.114563-2.0568237-2.2036133-3.0812378-3.2492676   c-1.3209229-1.3648682-2.6658325-2.7047729-3.9049072-3.8240356c-0.0072632-0.0067749-0.0149536-0.0144653-0.0222168-0.0212402   c-0.0996094-0.0927734-0.1786499-0.1615601-0.2372437-0.2240601c0.0048828-0.0628662,0.0160522-0.1364746,0.0272827-0.2276001   c0.0054321-0.043335,0.0110474-0.0617065,0.0167847-0.0893555c0.0141602-0.057373,0.0336914-0.1038818,0.0665283-0.1372681   c0.0136719-0.0087891,0.0271606-0.0175781,0.052124-0.0305176c0.0001831-0.0001221,0.0001831-0.0001221,0.0003662-0.0002441   c0.0125122-0.0064697,0.0360107-0.0159912,0.0518799-0.0234375c0.0700684-0.0327759,0.1657104-0.0726929,0.3215942-0.1239624   c0.2695313-0.0893555,0.5595703-0.1782227,0.8598633-0.2705078c0.2141724-0.0657349,0.4456177-0.1444702,0.6697998-0.2155151   c0.1134033-0.0374146,0.2258911-0.0704346,0.3387451-0.1090088c0.1375122-0.0452271,0.2686768-0.0824585,0.4064941-0.1307983   c0.0714722-0.0250854,0.137146-0.0598755,0.2084351-0.0858765c0.2410889-0.0878906,0.4713745-0.1898193,0.7039795-0.2901001   c0.1520386-0.0620728,0.3170166-0.1132202,0.4645386-0.1784668c0.4492188-0.1989746,0.9024048-0.4326172,1.3573608-0.6710205   c0.0628052-0.0302124,0.125-0.0612793,0.1878662-0.0917358c0.4182129-0.2023315,0.826355-0.4125977,1.2317505-0.6287842   c0.2151489-0.1030273,0.4301758-0.2076416,0.6429443-0.2944946c0.1647339-0.0671997,0.2890606-0.1815796,0.392271-0.3116455   c0.9636841-0.6225586,1.7225952-1.3275146,2.2353516-2.1104755c0.0933838-0.1416016,0.15625-0.291687,0.2346191-0.4375   c0.0776367-0.1459961,0.1702881-0.2875366,0.2327881-0.4378662c0.3808594-0.9021606,0.4796753-1.8736572,0.2958984-2.8806152   c-0.0047607-0.02771-0.0037842-0.0543213-0.0089111-0.0820923c-0.0161133-0.0813599-0.0473022-0.1641846-0.0671387-0.2459717   c-0.0608521-0.269043-0.1229858-0.5383911-0.2221069-0.8136597c-0.3883057-1.078064-1.0177002-1.9068604-1.843811-2.4929199   c-0.1827393-0.1373901-0.3834839-0.2463379-0.5838013-0.3563232c-0.0444336-0.0228882-0.083252-0.0529785-0.1286011-0.074646   c-0.8336773-0.4250488-1.8099346-0.6126099-2.8988018-0.5632935c-0.1622925,0.0015869-0.3261108,0.0063477-0.4940796,0.0168457   c-0.0001831,0-0.0003662,0.000061-0.0005493,0.000061c-0.335144,0.0210571-0.6738281,0.0474854-1.0308228,0.1045532   c-0.1600952,0.0255127-0.2979126,0.095459-0.4208374,0.1844482c-0.906311,0.2520142-1.7214966,0.623291-2.5767212,1.0201416   c-0.3095703,0.144043-0.6318359,0.293457-0.9741211,0.4443359c-0.5732422,0.253418-1.3310547,0.4838867-2.1328125,0.7285156   c-0.9711914,0.2958984-1.9755859,0.6020508-2.8251953,0.9995117c-3.0019531,1.4052734-6.1557617,3.5136719-6.7875977,8.4956074   c-0.5869141,4.6289063,0.9897461,7.472168,3.9116211,10.8193359c2.9121094,3.3354492,6.8842773,7.9575195,10.6679688,12.4135742   c0.1123047,3.6235352,0.0341797,7.3901329-0.0415039,11.0366173c-0.0961914,4.6484375-0.1958008,9.4555664,0.097168,14.0229492   c0.2895508,4.5117188,2.2226563,6.4130859,6.6718731,6.5620117c5.7333984,0.1918945,11.6425781,0.2875977,17.4428711,0.2875977   c5.652832,0,11.2021484-0.0908203,16.3793945-0.2734375c4.465332-0.1572266,6.390625-2.0615234,6.6455078-6.5727539   c0.2485352-4.4018555,0.152832-9.019043,0.0600586-13.484375c-0.0839844-4.0527344-0.1708984-8.2397423-0.0009766-12.2695274   l1.6274414-1.8574219c2.8652344-3.2695313,6.1132813-6.9746094,8.5649414-9.847168   C87.4282303,41.8876762,88.3574295,39.1415825,87.8501053,34.8251762z M82.646492,44.4096489   c-2.4428711,2.862793-5.6860352,6.5629883-8.5473633,9.8276367l-1.859375,2.1220703   c-0.1494141,0.1704102-0.2363281,0.3862305-0.246582,0.612793c-0.1933594,4.203125-0.1030273,8.5493126-0.0161133,12.7519493   c0.0917969,4.4272461,0.1870117,9.0048828-0.0576172,13.3300781c-0.1958008,3.4711914-1.2983398,4.5664063-4.71875,4.6865234   c-10.4438477,0.3686523-22.4072266,0.3642578-33.6850586-0.0141602c-3.4111309-0.1142578-4.5195293-1.2104492-4.7426739-4.690918   c-0.2880859-4.4829102-0.1889648-9.246582-0.09375-13.8535156c0.0786133-3.7900391,0.1601563-7.7089806,0.0292969-11.4941368   c-0.0078125-0.2250977-0.0913086-0.440918-0.2373047-0.6123047c-3.855957-4.5439453-7.9350586-9.2919922-10.9111328-12.7006836   c-3.0078125-3.4458008-3.8745117-5.7802734-3.434082-9.2519531c0.4799805-3.7856464,2.605957-5.5107441,5.6508789-6.9360371   c0.7211914-0.3374023,1.65625-0.6225586,2.5605469-0.8979492c0.8608398-0.262207,1.6743164-0.5102539,2.3569336-0.8115234   c0.3544922-0.15625,0.6884766-0.3110352,1.0092773-0.4604492c0.8710938-0.4042969,1.6230469-0.753418,2.4345703-0.9575195   c0.3959351-0.0994263,0.7533569-0.1560059,1.086731-0.1878662c1.2686768-0.0477905,2.1051025,0.2431641,2.6557617,0.6416016   c0.654417,0.522583,0.9320049,1.2140503,1.0700054,1.5633545c0.0847168,0.2147827,0.1447144,0.4248657,0.1914063,0.6324463   c0.2108765,1.043457-0.0274658,1.9682007-0.6995239,2.7946167c-0.4005737,0.4881592-0.9398174,0.9472656-1.6495953,1.3688354   c-0.1825562,0.1085205-0.3927002,0.2135639-0.5914307,0.3202534c-0.4031372,0.1943359-0.8018188,0.3973389-1.1903076,0.6021118   c-0.0726929,0.038269-0.1447754,0.0749512-0.2173462,0.1130981c-0.1122437,0.0540161-0.2232666,0.1097412-0.3348999,0.163269   c-0.3320923,0.1591797-0.6574707,0.3158569-0.9688721,0.47052c-0.0101929,0.0050659-0.0214233,0.0102539-0.0316162,0.0153198   c-0.0675049,0.0335693-0.1442261,0.0633545-0.2149658,0.0957031c-0.6073608,0.2542114-1.2626953,0.486084-1.9320068,0.7022095   c-0.1233521,0.038269-0.2484741,0.0774536-0.3681641,0.1141968c-0.3134766,0.0961914-0.6157227,0.1889648-0.8969727,0.2817383   c-0.041687,0.0137939-0.0824585,0.0301514-0.1239014,0.0447388c-0.2938843,0.0994873-0.5454102,0.2173462-0.758728,0.3568115   c-0.0233765,0.0150757-0.0469971,0.0296631-0.0698853,0.0455322c-0.0621948,0.0437622-0.1199951,0.0906982-0.175415,0.1387939   c-0.036499,0.0310669-0.0725098,0.062561-0.1070557,0.0963745c-0.0380859,0.0380859-0.0732422,0.0787354-0.1078491,0.1195068   c-0.0447388,0.0515747-0.0883179,0.1046753-0.1286011,0.1625977c-0.0166016,0.0244141-0.0310669,0.0508423-0.0466309,0.0761108   c-0.1235352,0.1956787-0.2205811,0.4276733-0.2848511,0.7033081c-0.0210571,0.0842285-0.0432129,0.1669922-0.0588989,0.2581787   c-0.0934448,0.5404663-0.0670776,0.9303589,0.0720825,1.2672119c0.0007935,0.0020142,0.0011597,0.0042725,0.0019531,0.0062866   c0.0072021,0.0171509,0.0178223,0.032959,0.0255737,0.0498657c0.0289917,0.0640869,0.0599976,0.1276245,0.098938,0.1895752   c0.1453857,0.2345581,0.3535767,0.4539185,0.6201172,0.696106c0.0031128,0.0028687,0.0053711,0.0053711,0.0084839,0.0082397   c1.2494507,1.164917,2.5483398,2.4405518,3.8608398,3.7800903c1.0543213,1.0895386,2.0905762,2.1916504,3.0463867,3.2125854   c0.4726563,0.5128174,0.946228,1.0233765,1.4150391,1.5463867c0.0394287,0.0440674,0.0913696,0.0663452,0.1362915,0.1016846   c2.5156231,2.598938,9.0508404,8.3588867,10.9066753,9.4813232c2.6738281,1.6181641,5.2338867,2.4272461,7.7719727,2.4272461   c2.5107422,0,4.9995117-0.7919922,7.5537109-2.3745117c1.7666016-1.0950928,8.2520142-6.8016357,10.8774414-9.3781738   c0.0464478-0.0343628,0.0994873-0.055481,0.140625-0.098877c0.3422852-0.3613281,0.6989136-0.730896,1.0490112-1.0968628   c0.6758423-0.6887207,1.3952637-1.4310303,2.1380005-2.1980591c0.5395508-0.5571899,1.0834351-1.1174927,1.6263428-1.6746216   c1.1870117-1.2020874,2.3840942-2.4008789,3.5740356-3.5715942c0.0234375-0.0223999,0.0487671-0.0479126,0.0720825-0.0701904   c0.1549683-0.1480713,0.309082-0.2999878,0.446228-0.4678345c0.0058594-0.0070801,0.0111084-0.0142822,0.0168457-0.0213623   c0.041687-0.0521851,0.0819702-0.1055908,0.1192017-0.1618042c0.0264893-0.0392456,0.0493774-0.0807495,0.0725098-0.121582   c0.019104-0.0341187,0.0388794-0.0674438,0.0559692-0.1033325c0.0205078-0.043335,0.0368042-0.09021,0.0534058-0.1362915   c0.0179443-0.0479736,0.0363159-0.095459,0.0502319-0.1469116c0.0004272-0.0014648,0.0005493-0.0031738,0.0009155-0.0046387   c0.0758667-0.2844849,0.0894165-0.6226807-0.0028076-1.0496216c-0.006897-0.0321655-0.0229492-0.0567627-0.0307007-0.0882568   c-0.0108643-0.0494385-0.0234985-0.0969238-0.036499-0.1439209c-0.1184692-0.4284668-0.3190918-0.7577515-0.5635986-1.0112305   c-0.0089111-0.0094604-0.0181274-0.0187988-0.0272827-0.0281982c-0.1564331-0.1567993-0.3252563-0.2862549-0.5005493-0.3919678   c-0.0341187-0.0210571-0.0690918-0.0415649-0.1046753-0.0615234c-0.0245972-0.0136108-0.0487671-0.0303955-0.0733643-0.0431519   c-0.1953735-0.1015015-0.3903809-0.178894-0.5690918-0.2415161c-0.0085449-0.0029907-0.0177002-0.0057373-0.0262451-0.008728   c-0.000061,0-0.000061-0.000061-0.0001221-0.000061c-0.0003662-0.0001221-0.0008545-0.0003052-0.0012207-0.0004272   c-0.1697388-0.059082-0.345459-0.1159668-0.5200806-0.1731567c-0.0913086-0.0299683-0.1792603-0.0604858-0.2716675-0.0905762   c-0.2650757-0.0860596-0.5324707-0.1801758-0.7993164-0.2731323c-0.2071533-0.0756226-0.416748-0.1565552-0.62677-0.2411499   c-0.2978516-0.119873-0.5961914-0.2399292-0.8746948-0.3919678c-0.1976318-0.1079102-0.411499-0.2050171-0.6243286-0.3025513   c-0.2268677-0.104126-0.4535522-0.204895-0.6858521-0.3012085c-0.5757446-0.2635498-1.1730957-0.5283813-1.7650757-0.7820435   c-0.1607666-0.0812988-0.333313-0.1583252-0.475647-0.2457886c-0.2371826-0.1458759-0.4510498-0.2960835-0.6540527-0.4482441   c-0.064209-0.0483398-0.1237793-0.0966797-0.1837158-0.1450195c-0.1342773-0.107605-0.2584839-0.2171021-0.3760376-0.3276978   c-0.0567017-0.053772-0.1188354-0.1077271-0.1707764-0.1613159c-0.1333008-0.1365967-0.2510986-0.2758179-0.3595581-0.4168091   c-0.0556641-0.0726929-0.104248-0.1445313-0.1521606-0.2163696c-0.0665894-0.0994263-0.1265869-0.1999512-0.1811523-0.3013916   c-0.0474243-0.0881348-0.0906372-0.1752319-0.1279297-0.2613525c-0.0543823-0.1266479-0.1018066-0.2545166-0.1380615-0.3842163   c-0.0129395-0.045166-0.0282593-0.0910034-0.0387573-0.135376c-0.1361084-0.5943604-0.0890503-1.2188721,0.1508789-1.8728638   c0.3060303-0.8329468,0.7605591-1.3740234,1.2827759-1.7322388c0.1028442-0.0652466,0.2003784-0.1364136,0.3132935-0.1903076   c0.0028076-0.0014648,0.0057983-0.0025024,0.008606-0.0039063c0.5281982-0.2503662,1.173584-0.3684692,1.9187012-0.37146   c0.382019,0.0180664,0.7595215,0.069458,1.1118774,0.1489868c0.9555664,0.2167969,1.9169922,0.6347656,2.9350586,1.0766602   l0.8115234,0.3496094c0.6972656,0.2944336,1.5161133,0.5170898,2.3076172,0.7329102   c0.8779297,0.2387695,1.7851563,0.4858398,2.5,0.8212891c3.059082,1.4355469,5.0444336,3.0864258,5.4897461,6.8750019   C86.3003006,38.7724419,85.5185623,41.0449028,82.646492,44.4096489z"/>
    </g>
</svg>